<?xml version="1.0" encoding="utf-8"?><!-- Uploaded to: SVG Repo, www.svgrepo.com, Generator: SVG Repo Mixer Tools -->
<svg width="800px" height="800px" viewBox="0 0 24 24" fill="none" xmlns="http://www.w3.org/2000/svg">
<path fill-rule="evenodd" clip-rule="evenodd" d="M20 1C21.6569 1 23 2.34315 23 4V14C23 15.6569 21.6569 17 20 17H13.562L18.6402 21.2318C19.0645 21.5853 19.1218 22.2159 18.7682 22.6402C18.4147 23.0645 17.7841 23.1218 17.3598 22.7682L13 19.135V22C13 22.5523 12.5523 23 12 23C11.4477 23 11 22.5523 11 22V19.135L6.64018 22.7682C6.21591 23.1218 5.58534 23.0645 5.23178 22.6402C4.87821 22.2159 4.93554 21.5853 5.35982 21.2318L10.438 17H4C2.34315 17 1 15.6569 1 14V4C1 2.34315 2.34315 1 4 1H20ZM20 3C20.5523 3 21 3.44772 21 4V14C21 14.5523 20.5523 15 20 15H4C3.44772 15 3 14.5523 3 14V4C3 3.44772 3.44772 3 4 3H20Z" fill="#0F0F0F"/>
</svg>